<?xml version="1.0" encoding="UTF-8"?>
<!-- Generator: Adobe Illustrator 19.1.0, SVG Export Plug-In . SVG Version: 6.00 Build 0)  -->
<svg xmlns="http://www.w3.org/2000/svg" xmlns:xlink="http://www.w3.org/1999/xlink" xmlns:dc="http://purl.org/dc/elements/1.1/" xmlns:cc="http://creativecommons.org/ns#" xmlns:rdf="http://www.w3.org/1999/02/22-rdf-syntax-ns#" version="1.1" id="DESIGNS" x="0px" y="0px" width="32px" height="32px" viewBox="0 0 32 32" style="enable-background:new 0 0 32 32;" xml:space="preserve">
<title property="dc:title">to open</title><desc property="dc:description">An icon for "open" from the Avocado series on to [icon]. Downloaded from http://www.toicon.com/icons/avocado_open by 218.250.112.251 on 2021-02-24. Licensed CC-BY, see http://toicon.com/license/ for details.</desc>
<g>
	<g>
		<polygon class="avocado_vijf" points="30.5,31.5 30.5,12.481 16,23.002 1.5,12.464 1.5,31.5   " style="fill: #f7bb2c;"/>
	</g>
	<polygon class="avocado_vier" points="16,0.625 1.5,12.464 16,23 30.497,12.481  " style="fill: #AF9480;"/>
	<polygon class="avocado_zes" points="5.5,3.5 5.5,15.372 16,23 26.5,15.377 26.5,3.5  " style="fill: #FFFAEE;"/>
	<path class="avocado_een" d="M20,10h-8V9h8V10z M20,11h-8v1h8V11z M20,13h-8v1h8V13z M31,12v20H1V12l4-3.2V3h7.25L16,0   l3.75,3H27v5.8L31,12z M27,10.081v4.315l2.828-2.053L27,10.081z M13.851,3h4.298L16,1.281L13.851,3z M6,4v11.117l10,7.265l10-7.26   V4H6z M2.177,12.339L5,14.391v-4.31L2.177,12.339z M2,30.293l9.757-9.757L2,13.447V30.293z M29.293,31l-9.868-9.868L16,23.618   l-3.424-2.487L2.707,31H29.293z M30,13.454l-9.756,7.083L30,30.293V13.454z" style="fill: #231F20;"/>
</g>
<metadata><work rdf:about=""><format>image/svg+xml</format><type rdf:resource="http://purl.org/dc/dcmitype/StillImage"/><license rdf:resource="http://creativecommons.org/licenses/by/4.0/"/><attributionname>Shannon E Thomas</attributionname><attributionurl>http://www.toicon.com/icons/avocado_open</attributionurl></work></metadata></svg>
