<?xml version="1.0" standalone="no"?><!DOCTYPE svg PUBLIC "-//W3C//DTD SVG 1.1//EN" "http://www.w3.org/Graphics/SVG/1.1/DTD/svg11.dtd"><svg t="1581604365077" class="icon" viewBox="0 0 1024 1024" version="1.1" xmlns="http://www.w3.org/2000/svg" p-id="7794" xmlns:xlink="http://www.w3.org/1999/xlink" width="200" height="200"><defs><style type="text/css"></style></defs><path d="M512 640a170.837333 170.837333 0 0 0 170.666667-170.666667V256a170.666667 170.666667 0 0 0-341.333334 0v213.333333a170.837333 170.837333 0 0 0 170.666667 170.666667z" fill="#646464" p-id="7795"></path><path d="M789.333333 422.4a25.6 25.6 0 0 0-25.6 25.6v21.333333a251.733333 251.733333 0 0 1-503.466666 0v-21.333333a25.6 25.6 0 1 0-51.2 0v21.333333a303.168 303.168 0 0 0 277.333333 301.653334v116.48H362.666667a25.6 25.6 0 0 0 0 51.2h298.666666a25.6 25.6 0 0 0 0-51.2h-123.733333v-116.48A303.168 303.168 0 0 0 814.933333 469.333333v-21.333333a25.6 25.6 0 0 0-25.6-25.6z" fill="#646464" p-id="7796"></path></svg>