<?xml version="1.0" standalone="no"?>
<!DOCTYPE svg PUBLIC "-//W3C//DTD SVG 1.1//EN" "http://www.w3.org/Graphics/SVG/1.1/DTD/svg11.dtd"><svg t="1581478271274"
    class="icon" viewBox="0 0 1024 1024" version="1.1" xmlns="http://www.w3.org/2000/svg" p-id="726"
    xmlns:xlink="http://www.w3.org/1999/xlink" width="200" height="200">
    <defs>
        <style type="text/css"></style>
    </defs>
    <path fill="#fff"
        d="M105.557333 34.60096c-32.768 7.24992-57.166507 29.003093-68.604587 61.351253l-3.90144 11.15136 0 810.103467 4.324693 11.994453c10.175147 28.439893 29.696 47.8208 58.4192 57.99936l11.154773 3.908267 810.100053 0 11.99104-4.328107c28.44672-10.175147 47.827627-29.699413 58.006187-58.4192l3.90144-11.154773L990.948693 107.103573l-3.90144-11.15136c-10.17856-28.7232-29.559467-48.244053-58.006187-58.422613l-11.99104-4.32128L515.485013 32.928427C186.426027 32.78848 112.390827 33.068373 105.557333 34.60096zM446.887253 400.472747c21.74976 5.717333 36.113067 16.868693 44.335787 34.300587 9.485653 19.93728 6.97344 45.73184-6.13376 65.66912-8.506027 13.1072-23.702187 26.494293-54.657707 48.384-6.13376 4.461227-14.639787 11.014827-18.824533 14.91968l-7.666347 6.83008 47.824213 0.14336 47.684267 0-0.27648 24.6784-0.41984 24.818347L314.702507 620.21632l0.41984-4.88448c0.836267-7.386453 5.573973-21.89312 11.014827-32.907947 10.038613-20.91008 29.559467-40.99072 68.32128-70.550187 35.136853-26.91072 45.175467-41.270613 39.318187-56.470187-3.201707-8.64256-13.940053-15.616-23.978667-15.755947-6.137173 0-14.363307 3.068587-18.684587 7.24992-3.485013 3.34848-8.78592 16.03584-8.78592 21.333333 0 1.81248-0.416427 3.628373-0.976213 3.908267-1.532587 0.976213-60.23168-3.908267-61.34784-5.0176-1.672533-1.675947 2.368853-19.380907 6.833493-30.119253 8.64256-20.6336 27.603627-34.297173 53.4016-38.48192C397.943467 395.59168 432.247467 396.704427 446.887253 400.472747zM165.369173 416.228693c2.792107 8.64256 13.666987 43.639467 24.261973 77.663573 10.738347 34.020693 19.6608 61.34784 20.08064 60.648107 0.416427-0.692907 11.291307-35.55328 24.261973-77.663573l23.422293-76.26752 70.413653 0-2.788693 7.253333c-1.532587 4.041387-19.797333 53.541547-40.71424 109.868373l-38.065493 102.48192-37.505707 0.279893-37.645653 0.416427-41.13408-108.895573c-22.586027-59.9552-41.270613-109.595307-41.550507-110.15168-0.27648-0.69632 15.895893-1.256107 35.836587-1.256107L160.494933 400.605867 165.369173 416.228693zM696.050347 424.31488l0 23.702187-114.333013 0 0 33.46432 52.70528 0.27648 52.56192 0.41984 0.41984 22.586027 0.279893 22.729387-52.565333 0.279893-52.708693 0.416427 0 41.8304 58.146133 0.416427 58.14272 0.283307 0.41984 19.797333 0.413013 19.657387 34.024107-51.165867c18.688-28.166827 34.024107-51.869013 34.024107-52.845227s-15.059627-24.818347-33.604267-52.985173c-18.54464-28.30336-33.744213-51.729067-33.744213-52.005547 0-0.279893 17.148587-0.559787 38.06208-0.559787l37.925547 0 18.684587 32.768c10.318507 17.84832 19.24096 32.34816 19.6608 32.068267 0.559787-0.41984 9.0624-15.056213 18.827947-32.764587l17.984853-32.07168 37.36576 0c20.50048 0 37.369173 0.279893 37.369173 0.699733 0 0.416427-15.056213 24.261973-33.467733 52.98176-18.404693 28.57984-33.46432 52.425387-33.46432 52.98176 0 0.41984 16.175787 25.37472 35.976533 55.493973 19.797333 30.119253 36.529493 55.493973 37.08928 56.33024 0.836267 1.396053-7.113387 1.81248-37.789013 1.81248l-38.898347 0-20.773547-34.16064c-11.574613-18.827947-21.333333-34.020693-21.89312-33.7408-0.692907 0.139947-10.315093 15.332693-21.753173 33.7408l-20.6336 33.46432-128.55296 0.41984-128.556373 0.27648 0-220.30336 182.654293 0L696.050347 424.31488 696.050347 424.31488z"
        p-id="727"></path>
</svg>